<svg width="79" height="79" viewBox="0 0 79 79" fill="none" xmlns="http://www.w3.org/2000/svg">
<path d="M59.2875 34.3914C59.7146 36.0507 59.931 37.7696 59.931 39.5001C59.931 50.7658 50.7657 59.9312 39.5 59.9312C28.2343 59.9312 19.069 50.7658 19.069 39.5001C19.069 28.2345 28.2343 19.0691 39.5 19.0691C44.1898 19.0691 48.6 20.6142 52.2536 23.5375C52.8411 24.0075 53.6982 23.9123 54.1681 23.3249C54.638 22.7375 54.5429 21.8804 53.9555 21.4103C49.8728 18.1439 44.739 16.345 39.5 16.345C26.7321 16.345 16.3448 26.7323 16.3448 39.5001C16.3448 52.268 26.7321 62.6553 39.5 62.6553C52.2677 62.6553 62.6552 52.268 62.6552 39.5001C62.6552 37.5408 62.4098 35.5936 61.9258 33.7124C61.7382 32.9838 60.9958 32.5454 60.2671 32.7327C59.5386 32.9203 59.1 33.6628 59.2875 34.3914Z" fill="#4DA7B0"/>
<path d="M55.9506 25.141C55.3545 25.5997 55.243 26.4549 55.7016 27.0512C56.3597 27.9064 56.9537 28.8191 57.4669 29.7644C57.7138 30.219 58.1818 30.4768 58.665 30.4768C58.8846 30.4768 59.1075 30.4235 59.314 30.3114C59.975 29.9524 60.2198 29.1256 59.8609 28.4645C59.2791 27.3932 58.6062 26.3589 57.8609 25.3901C57.402 24.7939 56.5471 24.6822 55.9506 25.141Z" fill="#4DA7B0"/>
<path d="M44.7758 40.8621H57.2069C57.9591 40.8621 58.569 40.2522 58.569 39.5C58.569 38.7478 57.9591 38.1379 57.2069 38.1379H44.7758C44.5247 37.1657 44.0107 36.2988 43.3153 35.6155L49.533 24.8463C49.9093 24.1949 49.6859 23.3619 49.0345 22.9858C48.3831 22.6095 47.55 22.8329 47.1739 23.4843L40.9576 34.2512C40.4933 34.1222 40.0048 34.0517 39.5 34.0517C38.9952 34.0517 38.5067 34.1222 38.0424 34.2512L31.8261 23.4843C31.45 22.8329 30.6169 22.61 29.9655 22.9858C29.3141 23.3619 29.0909 24.1949 29.467 24.8463L35.6847 35.6155C34.9893 36.2986 34.4753 37.1657 34.2242 38.1377H21.7931C21.0409 38.1377 20.431 38.7476 20.431 39.4998C20.431 40.252 21.0409 40.8619 21.7931 40.8619H34.2242C34.4753 41.8339 34.9893 42.701 35.6847 43.3841L29.467 54.1533C29.0909 54.8047 29.3141 55.6378 29.9655 56.0139C30.18 56.1378 30.4141 56.1966 30.6454 56.1966C31.1161 56.1966 31.5739 55.9522 31.8263 55.5154L38.0426 44.7484C38.5069 44.8774 38.9953 44.9479 39.5002 44.9479C40.005 44.9479 40.4935 44.8774 40.9577 44.7484L47.1741 55.5154C47.4262 55.9522 47.884 56.1966 48.355 56.1966C48.5858 56.1966 48.8201 56.1377 49.0346 56.0139C49.6861 55.6378 49.9094 54.8047 49.5332 54.1533L43.3155 43.3841C44.0107 42.7014 44.5247 41.8342 44.7758 40.8621ZM36.7759 39.5C36.7759 37.998 37.998 36.7758 39.5 36.7758C41.002 36.7758 42.2241 37.998 42.2241 39.5C42.2241 41.002 41.002 42.2241 39.5 42.2241C37.998 42.2241 36.7759 41.002 36.7759 39.5Z" fill="#4DA7B0"/>
<path d="M77.6379 38.138H66.7073C66.2614 29.1262 61.4155 21.2535 54.2788 16.6265L59.7485 7.15266C60.1248 6.50125 59.9014 5.66817 59.25 5.29207C58.5986 4.91597 57.7653 5.13918 57.3894 5.79059L51.9224 15.2599C48.1954 13.3422 43.972 12.2587 39.5 12.2587C35.0282 12.2587 30.8046 13.3422 27.0778 15.2599L21.6108 5.79059C21.2348 5.13918 20.4016 4.91614 19.7502 5.29207C19.0988 5.66817 18.8756 6.50125 19.2517 7.15266L24.7214 16.6265C17.5845 21.2537 12.7386 29.1264 12.2927 38.138H1.36207C0.609866 38.138 0 38.7479 0 39.5001C0 40.2523 0.609866 40.8622 1.36207 40.8622H12.2927C12.7386 49.8738 17.5845 57.7466 24.7212 62.3737L19.2515 71.8475C18.8754 72.499 19.0986 73.332 19.75 73.7081C19.9645 73.8321 20.1986 73.8908 20.4298 73.8908C20.9006 73.8908 21.3584 73.6465 21.6108 73.2096L27.0778 63.7403C30.8046 65.658 35.0282 66.7415 39.5 66.7415C43.972 66.7415 48.1954 65.658 51.9224 63.7403L57.3894 73.2096C57.6416 73.6465 58.0994 73.8908 58.5703 73.8908C58.8012 73.8908 59.0355 73.8319 59.25 73.7081C59.9014 73.332 60.1248 72.499 59.7485 71.8475L54.2788 62.3737C61.4155 57.7467 66.2614 49.874 66.7073 40.8622H77.6379C78.3901 40.8622 79 40.2523 79 39.5001C79 38.7479 78.3901 38.138 77.6379 38.138ZM39.5 64.0173C25.9811 64.0173 14.9828 53.019 14.9828 39.5001C14.9828 25.9812 25.9811 14.9829 39.5 14.9829C53.0189 14.9829 64.0172 25.9812 64.0172 39.5001C64.0172 53.019 53.0189 64.0173 39.5 64.0173Z" fill="#4DA7B0"/>
</svg>
